<svg width="130" height="47" viewBox="0 0 130 47" fill="none" xmlns="http://www.w3.org/2000/svg">
<path d="M74.4291 45.2253V0H85.9587V35.0548H99.3443V45.2253H74.4291Z" fill="#EF3346"></path>
<path d="M60.1451 0V5.59106C60.1451 8.44836 59.9082 11.5193 59.4603 14.3432C59.1617 16.2274 58.7936 17.7925 58.0445 19.5198C50.5666 15.9237 45.7633 8.34282 45.7633 0H34.6146C34.6146 11.9363 41.1041 22.8585 51.3749 28.6194C46.8882 32.5321 41.032 34.9081 34.6275 34.9081V46.0567C54.8475 46.0567 71.2963 29.6079 71.2963 9.38793V0H60.1476H60.1451Z" fill="#EF3346"></path>
<path d="M29.6851 4.20874C28.138 2.66167 26.2563 1.57538 24.0374 0.944713C21.8185 0.316621 18.7424 0 14.8091 0H0V45.2253H11.0997V10.1705H15.3419C17.9701 10.1705 19.8905 10.5901 21.1055 11.4292C22.3205 12.2684 22.928 13.5941 22.928 15.4037C22.928 18.9818 20.5417 20.7708 15.7718 20.7708H13.0355V31.0082H16.0704C19.561 31.0082 22.3977 30.6324 24.5857 29.8807C26.7737 29.1291 28.6168 27.8935 30.1176 26.1688C32.7226 23.2317 34.0277 19.6099 34.0277 15.3008C34.0277 10.7728 32.581 7.07377 29.6877 4.20101L29.6851 4.20874Z" fill="#EF3346"></path>
<path d="M129.742 10.1705V0H102.59V45.2253H129.742V35.0548H113.687V30.5629H113.693V20.3924H113.687V10.1705H129.742Z" fill="#EF3346"></path>
<path d="M129.742 17.4965H115.626V27.7262H129.742V17.4965Z" fill="#EF3346"></path>
</svg>
